{
  "accessors": [
    {
      "bufferView": 2,
      "componentType": 5126,
      "count": 64,
      "max": [
        104.30320739746094,
        3.142472982406616,
        8.059809684753418
      ],
      "min": [
        -104.20660400390625,
        -3.142472982406616,
        0.1081010028719902
      ],
      "type": "VEC3"
    },
    {
      "bufferView": 2,
      "byteOffset": 768,
      "componentType": 5126,
      "count": 64,
      "max": [
        0.5773502588272095,
        0.7071067690849304,
        0.7071067690849304
      ],
      "min": [
        -0.5773502588272095,
        -0.7071067690849304,
        -0.7071067690849304
      ],
      "type": "VEC3"
    },
    {
      "bufferView": 3,
      "componentType": 5126,
      "count": 64,
      "max": [
        0.8164966702461243,
        0.7071068286895752,
        1.0,
        1.0
      ],
      "min": [
        -0.8164966702461243,
        -0.7071068286895752,
        -1.0,
        -1.0
      ],
      "type": "VEC4"
    },
    {
      "bufferView": 1,
      "componentType": 5126,
      "count": 64,
      "max": [
        0.9980000257492065,
        0.9621000289916992
      ],
      "min": [
        0.00019999999494757503,
        0.0551999993622303
      ],
      "type": "VEC2"
    },
    {
      "bufferView": 0,
      "componentType": 5125,
      "count": 180,
      "type": "SCALAR"
    },
    {
      "bufferView": 4,
      "componentType": 5126,
      "count": 2,
      "max": [
        0.03333333507180214
      ],
      "min": [
        0.0
      ],
      "type": "SCALAR"
    },
    {
      "bufferView": 5,
      "componentType": 5126,
      "count": 2,
      "max": [
        0.0,
        0.0,
        0.0
      ],
      "min": [
        0.0,
        0.0,
        0.0
      ],
      "type": "VEC3"
    },
    {
      "bufferView": 4,
      "byteOffset": 8,
      "componentType": 5126,
      "count": 2,
      "max": [
        0.03333333507180214
      ],
      "min": [
        0.0
      ],
      "type": "SCALAR"
    },
    {
      "bufferView": 5,
      "byteOffset": 24,
      "componentType": 5126,
      "count": 2,
      "max": [
        1.0,
        1.0,
        1.0
      ],
      "min": [
        1.0,
        1.0,
        1.0
      ],
      "type": "VEC3"
    },
    {
      "bufferView": 4,
      "byteOffset": 16,
      "componentType": 5126,
      "count": 2,
      "max": [
        0.03333333507180214
      ],
      "min": [
        0.0
      ],
      "type": "SCALAR"
    },
    {
      "bufferView": 6,
      "componentType": 5126,
      "count": 2,
      "max": [
        -0.7071067690849304,
        -0.0,
        0.0,
        0.7071067690849304
      ],
      "min": [
        -0.7071067690849304,
        -0.0,
        0.0,
        0.7071067690849304
      ],
      "type": "VEC4"
    },
    {
      "bufferView": 4,
      "byteOffset": 24,
      "componentType": 5126,
      "count": 1,
      "max": [
        0.0
      ],
      "min": [
        0.0
      ],
      "type": "SCALAR"
    },
    {
      "bufferView": 5,
      "byteOffset": 48,
      "componentType": 5126,
      "count": 1,
      "max": [
        0.0,
        0.0,
        0.0
      ],
      "min": [
        0.0,
        0.0,
        0.0
      ],
      "type": "VEC3"
    },
    {
      "bufferView": 4,
      "byteOffset": 28,
      "componentType": 5126,
      "count": 1,
      "max": [
        0.0
      ],
      "min": [
        0.0
      ],
      "type": "SCALAR"
    },
    {
      "bufferView": 5,
      "byteOffset": 60,
      "componentType": 5126,
      "count": 1,
      "max": [
        1.0,
        1.0,
        1.0
      ],
      "min": [
        1.0,
        1.0,
        1.0
      ],
      "type": "VEC3"
    },
    {
      "bufferView": 4,
      "byteOffset": 32,
      "componentType": 5126,
      "count": 1,
      "max": [
        0.0
      ],
      "min": [
        0.0
      ],
      "type": "SCALAR"
    },
    {
      "bufferView": 6,
      "byteOffset": 32,
      "componentType": 5126,
      "count": 1,
      "max": [
        0.0,
        0.0,
        0.0,
        1.0
      ],
      "min": [
        0.0,
        0.0,
        0.0,
        1.0
      ],
      "type": "VEC4"
    },
    {
      "bufferView": 4,
      "byteOffset": 36,
      "componentType": 5126,
      "count": 1,
      "max": [
        0.0
      ],
      "min": [
        0.0
      ],
      "type": "SCALAR"
    },
    {
      "bufferView": 5,
      "byteOffset": 72,
      "componentType": 5126,
      "count": 1,
      "max": [
        0.0,
        0.0,
        0.0
      ],
      "min": [
        0.0,
        0.0,
        0.0
      ],
      "type": "VEC3"
    },
    {
      "bufferView": 4,
      "byteOffset": 40,
      "componentType": 5126,
      "count": 1,
      "max": [
        0.0
      ],
      "min": [
        0.0
      ],
      "type": "SCALAR"
    },
    {
      "bufferView": 5,
      "byteOffset": 84,
      "componentType": 5126,
      "count": 1,
      "max": [
        1.0,
        1.0,
        1.0
      ],
      "min": [
        1.0,
        1.0,
        1.0
      ],
      "type": "VEC3"
    },
    {
      "bufferView": 4,
      "byteOffset": 44,
      "componentType": 5126,
      "count": 1,
      "max": [
        0.0
      ],
      "min": [
        0.0
      ],
      "type": "SCALAR"
    },
    {
      "bufferView": 6,
      "byteOffset": 48,
      "componentType": 5126,
      "count": 1,
      "max": [
        0.0,
        0.0,
        0.0,
        1.0
      ],
      "min": [
        0.0,
        0.0,
        0.0,
        1.0
      ],
      "type": "VEC4"
    }
  ],
  "animations": [
    {
      "channels": [
        {
          "sampler": 0,
          "target": {
            "node": 5,
            "path": "translation"
          }
        },
        {
          "sampler": 1,
          "target": {
            "node": 5,
            "path": "scale"
          }
        },
        {
          "sampler": 2,
          "target": {
            "node": 5,
            "path": "rotation"
          }
        },
        {
          "sampler": 3,
          "target": {
            "node": 4,
            "path": "translation"
          }
        },
        {
          "sampler": 4,
          "target": {
            "node": 4,
            "path": "scale"
          }
        },
        {
          "sampler": 5,
          "target": {
            "node": 4,
            "path": "rotation"
          }
        },
        {
          "sampler": 6,
          "target": {
            "node": 3,
            "path": "translation"
          }
        },
        {
          "sampler": 7,
          "target": {
            "node": 3,
            "path": "scale"
          }
        },
        {
          "sampler": 8,
          "target": {
            "node": 3,
            "path": "rotation"
          }
        }
      ],
      "name": "Default Take",
      "samplers": [
        {
          "input": 5,
          "interpolation": "LINEAR",
          "output": 6
        },
        {
          "input": 7,
          "interpolation": "LINEAR",
          "output": 8
        },
        {
          "input": 9,
          "interpolation": "LINEAR",
          "output": 10
        },
        {
          "input": 11,
          "interpolation": "LINEAR",
          "output": 12
        },
        {
          "input": 13,
          "interpolation": "LINEAR",
          "output": 14
        },
        {
          "input": 15,
          "interpolation": "LINEAR",
          "output": 16
        },
        {
          "input": 17,
          "interpolation": "LINEAR",
          "output": 18
        },
        {
          "input": 19,
          "interpolation": "LINEAR",
          "output": 20
        },
        {
          "input": 21,
          "interpolation": "LINEAR",
          "output": 22
        }
      ]
    }
  ],
  "asset": {
    "extras": {
      "author": "rakshigames (https://sketchfab.com/rakshigames)",
      "license": "CC-BY-4.0 (http://creativecommons.org/licenses/by/4.0/)",
      "source": "https://sketchfab.com/3d-models/free-iron-rod-8047c37dfde346258a5452e8da740ae7",
      "title": "Free Iron Rod"
    },
    "generator": "Sketchfab-12.67.0",
    "version": "2.0"
  },
  "bufferViews": [
    {
      "buffer": 0,
      "byteLength": 720,
      "name": "floatBufferViews",
      "target": 34963
    },
    {
      "buffer": 0,
      "byteLength": 512,
      "byteOffset": 720,
      "byteStride": 8,
      "name": "floatBufferViews",
      "target": 34962
    },
    {
      "buffer": 0,
      "byteLength": 1536,
      "byteOffset": 1232,
      "byteStride": 12,
      "name": "floatBufferViews",
      "target": 34962
    },
    {
      "buffer": 0,
      "byteLength": 1024,
      "byteOffset": 2768,
      "byteStride": 16,
      "name": "floatBufferViews",
      "target": 34962
    },
    {
      "buffer": 0,
      "byteLength": 48,
      "byteOffset": 3792,
      "name": "floatBufferViews"
    },
    {
      "buffer": 0,
      "byteLength": 96,
      "byteOffset": 3840,
      "byteStride": 12,
      "name": "floatBufferViews"
    },
    {
      "buffer": 0,
      "byteLength": 64,
      "byteOffset": 3936,
      "byteStride": 16,
      "name": "floatBufferViews"
    }
  ],
  "buffers": [
    {
      "byteLength": 4000,
      "uri": "scene.bin"
    }
  ],
  "images": [
    {
      "uri": "textures/Rod__AO_tga_baseColor.png"
    },
    {
      "uri": "textures/Rod__AO_tga_normal.png"
    }
  ],
  "materials": [
    {
      "doubleSided": true,
      "name": "Rod__AO_tga",
      "normalTexture": {
        "index": 1
      },
      "pbrMetallicRoughness": {
        "baseColorTexture": {
          "index": 0
        },
        "metallicFactor": 0.0,
        "roughnessFactor": 0.6
      }
    }
  ],
  "meshes": [
    {
      "name": "rod_Rod__AO_tga_0",
      "primitives": [
        {
          "attributes": {
            "NORMAL": 1,
            "POSITION": 0,
            "TANGENT": 2,
            "TEXCOORD_0": 3
          },
          "indices": 4,
          "material": 0,
          "mode": 4
        }
      ]
    }
  ],
  "nodes": [
    {
      "children": [
        1
      ],
      "matrix": [
        1.0,
        0.0,
        0.0,
        0.0,
        0.0,
        2.220446049250313e-16,
        -1.0,
        0.0,
        0.0,
        1.0,
        2.220446049250313e-16,
        0.0,
        0.0,
        0.0,
        0.0,
        1.0
      ],
      "name": "Sketchfab_model"
    },
    {
      "children": [
        2
      ],
      "matrix": [
        1.0,
        0.0,
        0.0,
        0.0,
        0.0,
        0.0,
        1.0,
        0.0,
        0.0,
        -1.0,
        0.0,
        0.0,
        0.0,
        0.0,
        0.0,
        1.0
      ],
      "name": "2c243aa383d54601bb2ffc7dc4f3f991.fbx"
    },
    {
      "children": [
        3
      ],
      "name": "Object_2"
    },
    {
      "children": [
        4
      ],
      "name": "RootNode"
    },
    {
      "children": [
        5
      ],
      "name": "blend_root"
    },
    {
      "children": [
        6
      ],
      "name": "rod",
      "rotation": [
        -0.7071068286895752,
        0.0,
        0.0,
        0.7071067094802856
      ]
    },
    {
      "mesh": 0,
      "name": "rod_Rod__AO_tga_0"
    }
  ],
  "samplers": [
    {
      "magFilter": 9729,
      "minFilter": 9987,
      "wrapS": 10497,
      "wrapT": 10497
    }
  ],
  "scene": 0,
  "scenes": [
    {
      "name": "Sketchfab_Scene",
      "nodes": [
        0
      ]
    }
  ],
  "textures": [
    {
      "sampler": 0,
      "source": 0
    },
    {
      "sampler": 0,
      "source": 1
    }
  ]
}
